<svg xmlns="http://www.w3.org/2000/svg" viewBox="0 0 250 70"><g fill="#0060A9"><path d="M16.9 13.9l-2.7 5.8-3.7-5.6v-.2H5.9L.5 25.5h4.6l2.8-5.9 3.9 5.9h4.4l5.3-11.6z"/><path d="M.5 25.5l5.4-11.6h4.5l3.8 5.8 2.7-5.8h4.6l-5.3 11.6h-4.4l-3.9-5.9-2.8 5.9zm224.6 0l5.4-11.6h4.4l3.8 5.8 2.8-5.8h4.6l-5.5 11.6h-4.2l-4-5.9-2.7 5.9zm-83.1-.4c-.9.1-1.4.3-2.5.4-1.2.1-1.8.1-2.8.1-.9 0-1.7-.1-2.5-.3-.7-.1-1.3-.4-1.8-.7-.9-.5-1.4-1.3-1.7-2.1-.3-.9-.1-1.8.4-2.9.4-.9.9-1.7 1.6-2.4.7-.7 1.6-1.3 2.5-2 1.1-.5 2.1-1.1 3.2-1.3 1.1-.3 2.2-.4 3.4-.4.9 0 1.7.1 2.5.3.8.1 1.6.4 2.2.7l-1.2 2.8c-.7-.3-1.2-.5-1.8-.7-.7-.1-1.3-.3-2-.3-1.3 0-2.4.3-3.4.9-1.1.5-1.7 1.3-2.1 2.4-.4.9-.4 1.7 0 2.2.4.5 1.2.9 2.2.9h.5c.3 0 .3 0 .5-.1l.7-1.3h-1.4l1.2-2.4h5.3l-3 6.2zM115.2 16h1.1c.8 0 1.3.1 1.6.4.3.3.3.7 0 1.2s-.7.9-1.1 1.2c-.5.3-1.2.4-2 .4h-.9l1.3-3.2zm-4.3 9.5l2-4.1h1.6c2 0 3.7-.3 5-.9 1.3-.7 2.2-1.6 2.9-2.9.5-1.3.4-2.1-.3-2.8-.8-.7-2.1-.9-4.2-.9h-6.3l-5.4 11.6h4.7zm-50.9 0l5.7-11.6h4.8l-1.9 4.2h5l2.1-4.2h5L75 25.5h-5l2.1-4.3H67l-2.1 4.3zm-9.7 0l4.4-8.5h-4.4l1.5-3.1H65L63.5 17h-4.2L55 25.5zm-24.2-7.6c.8-.5 1.6-.8 2.4-.8.8 0 1.4.3 1.7.8.4.5.4 1.1 0 1.8-.3.8-.8 1.3-1.6 1.8s-1.6.8-2.4.8c-.8 0-1.4-.3-1.7-.8s-.4-1.1 0-1.8c.5-.8 1-1.4 1.6-1.8zm-6.8 4.2c0 .7.4 1.3.8 2 .5.5 1.2 1.1 2 1.3s1.7.4 2.8.4c1.1 0 2.1-.1 3.2-.4 1.1-.3 2.1-.7 3-1.3 1.1-.5 1.8-1.2 2.5-2 .7-.7 1.2-1.4 1.6-2.4s.5-1.7.5-2.4-.4-1.3-.8-2c-.5-.5-1.1-.9-2-1.3-.8-.3-1.7-.4-2.9-.4-1.1 0-2.1.1-3.2.4-1.1.3-2 .7-3 1.3-1.1.5-1.8 1.2-2.5 2-.7.7-1.2 1.4-1.6 2.4-.3.8-.4 1.6-.4 2.4zm79.9-4.2c.8-.5 1.6-.8 2.4-.8.8 0 1.4.3 1.7.8.3.5.4 1.1 0 1.8-.3.7-.8 1.3-1.6 1.8s-1.6.8-2.4.8-1.4-.3-1.7-.8c-.3-.5-.4-1.1 0-1.8.3-.8.8-1.4 1.6-1.8zm-6.8 4.2c0 .7.4 1.3.8 2 .5.5 1.2 1.1 2 1.3s1.7.4 2.8.4c1.1 0 2.1-.1 3.2-.4s2.1-.7 3-1.3c1.1-.5 1.8-1.2 2.5-2 .7-.7 1.2-1.4 1.6-2.4.4-.9.5-1.7.5-2.4s-.4-1.3-.8-2c-.5-.5-1.1-.9-2-1.3-.9-.3-1.8-.4-2.9-.4s-2.1.1-3.2.4-2 .7-3 1.3c-1.1.5-1.8 1.2-2.5 2-.7.7-1.2 1.4-1.6 2.4-.4.8-.6 1.6-.4 2.4zm70.4-8.2h4.9l-2.9 6.2c-.4.8-.4 1.4-.3 1.8.3.4.8.7 1.6.7s1.6-.3 2.2-.7c.7-.4 1.1-1.1 1.4-1.8l2.9-6.2h4.9l-2.9 6.3c-.8 1.8-2.1 3.2-3.7 4.1-1.7.9-3.7 1.3-6.2 1.3-2.4 0-4.1-.4-4.9-1.3-.8-.9-.8-2.2 0-4.1l3-6.3zm57.5 3.1l-.1 4.3h-3.9l4-4.3zm-8 8.5l1.8-2h6v2h4.6l-.7-11.6h-4.9l-11.7 11.6h4.9zM49.7 14.7c-.8-.5-2.2-.8-4.3-.8H39l-5.6 11.6h4.9l2.4-4.9h1.4c1.2 0 1.7 1.4 1.7 3.8v1.1h4.6l-.6-3.5c0-.4-.1-1.1-.3-1.3-.1-.3-.4-.4-.7-.5.9-.3 1.3-.7 1.8-1.1.5-.5.9-1.1 1.2-1.6.6-1.3.5-2.3-.1-2.8zm-4.2 2.8c-.1.4-.7.8-1.2 1.1-.4.1-1.4.4-2.2.4h-.9l1.4-3.2h.9c.8 0 1.4.3 1.7.4.3.2.4.6.3 1.3z"/><path d="M92.9 14.7c-.8-.5-2.2-.8-4.3-.8h-6.4l-5.5 11.6h4.9l2.4-4.9h1.4c1.2 0 1.7 1.4 1.7 3.8v1.1h4.6l-.5-3.5c0-.4-.1-1.1-.3-1.3-.1-.3-.4-.4-.7-.5.9-.3 1.3-.7 1.8-1.1.5-.5.9-1.1 1.2-1.6.6-1.3.5-2.3-.3-2.8zm-4.1 2.8c-.1.4-.7.8-1.2 1.1-.4.1-1.4.4-2.2.4h-.9l1.4-3.2h.9c.8 0 1.4.3 1.7.4.3.2.4.6.3 1.3zm71-2.8c-.8-.5-2.2-.8-4.3-.8H149l-5.6 11.6h4.9l2.4-4.9h1.4c1.2 0 1.7 1.4 1.7 3.8v1.1h4.6l-.1-3.5c0-.4-.1-1.1-.3-1.3s-.4-.4-.7-.5c.9-.3 1.3-.7 1.8-1.1.5-.5.9-1.1 1.2-1.6.4-1.3.3-2.3-.5-2.8zm-4.1 2.8c-.1.4-.7.8-1.2 1.1-.4.3-1.4.4-2.4.4h-.9l1.4-3.2h.9c.8 0 1.4.3 1.7.4.5.2.6.6.5 1.3zm17.6 8l5.4-11.6h4.5l1.5 4.6 5.7-4.6h4.4l-5.3 11.6h-4.6l3-6.6-5.7 4.8-1.4-4.5-3 6.3zm17.5 0l5.5-11.6h4.5l1.4 4.6 5.7-4.6h4.6l-5.4 11.6h-4.8l3.2-6.6-5.8 4.8-1.3-4.5-3 6.3zM25.1 55.8l-.3.2.7.9.3-.1c39.8-27.9 152.2-27.2 206-26.9h17.7v-1.2h-17.7c-54-.3-166.6-1-206.7 27.1z"/><path d="M25.4 56.1l.4.5c39.7-28 152-27.5 206-27.1h17.5V29h-17.5c-54-.3-166.5-1-206.4 27.1z"/></g></svg>