<svg xmlns="http://www.w3.org/2000/svg" width="360" height="360"><g fill="#212121"><path d="M127.065 214.941l57.49-156.847 53.533 156.847 48.324-122.478c.24-1.159 3.605-8.84 3.605-12.44 0-12.298-11.996-12.598-27.893-13.198v-9.896h72.883v9.896c-21.596 1.8-27.594 4.2-33.893 24.295l-67.193 182.561-54.898-155.655-56.749 155.655L56.068 91.72C50.67 75.224 47.37 68.925 25.475 66.226v-9.297h77.382v9.596c-3.299.301-11.697.602-14.397 1.2-2.398.602-7.098 2.101-7.098 10.499 0 2.4.6 4.798 2.4 10.798l43.303 125.919z"/><path d="M149.436 160.578c0 12.299 0 24.297 2.446 34.193 5.303 20.997 20.801 32.693 38.543 32.693 13.869 0 26.309-7.199 33.65-18.296 9.789-14.696 8.105-32.692 8.105-55.487v-72.85c-.613-26.694-7.855-31.492-24.984-32.993V37.94h60.422v9.596c-15.297 3.001-24.781 8.998-25.188 35.094v71.95c-.613 31.793-.816 56.688-21.822 74.385-11.219 9.297-22.025 11.697-34.059 11.697-17.13 0-34.465-5.1-46.497-22.495-11.217-16.495-11.625-31.794-12.032-47.989V75.431c-.204-11.398.41-15.708-2.24-20.506-3.264-6-13.838-6.588-23.016-7.189V37.94h71.767v10.096c-16.111.899-24.485 4.701-25.097 27.496v102.543"/></g><path fill="#212121" d="M180.104 275.736h-3.516c-.068 0-6.394.043-7.721.152-1.329.104-3.846.275-4.675.527-1.689.504-2.654 1.686-3.284 3.416-.629 1.73-.924 4.007-1.268 6.705h-3.242c.311-3.543.482-5.693.578-7.783.094-2.087.055-4.111.111-7.4-.002.143 8.662-.152 10.863-.01 3.5-.124 12.356-.143 15.948-.143 2.775 0 15.615.059 20.232.109 4.617.049 8.541.086 8.541.043.121 3.244.121 5.188.16 7.252.039 2.068.115 4.262.391 8.02h-3.31c-.137-3.715-.621-6.056-1.396-7.574-.775-1.52-1.846-2.215-3.154-2.635-.898-.295-2.156-.465-3.355-.558-1.199-.099-9.863-.122-10.52-.122h-3.518v47.082c0 2.993.57 4.492 1.449 5.244.879.744 2.068.744 3.311.744h4.558v3.124c-1.828-.129-5.699-.01-7.578-.102-1.881-.096-3.875-.072-5.771-.072s-3.893-.023-5.771.072c-1.881.092-5.689-.027-7.518.102v-3.124h2.485c1.242 0 4.541 0 5.455-.744.914-.752 1.516-2.251 1.516-5.244v-47.081z"/><path fill="#212121" d="M150.746 285.475c-9.492-4.781-14.236-10.031-14.236-18.938 0-5.908 2.256-10.783 5.213-13.783 3.734-3.75 8.715-4.969 13.617-4.969 5.68 0 9.258 1.219 16.496 3.564-.391 4.125-.545 6.375-.545 9.842 0 1.782.078 3.471.078 5.252h-4.746c-.078-3.563-.158-6.47-1.557-9.188-2.025-3.749-5.836-5.062-9.57-5.062-7.781 0-11.207 5.062-11.207 10.501 0 5.343 2.492 7.874 11.518 12.655 10.895 5.719 18.208 9.469 18.208 21.656 0 13.406-8.87 20.625-19.375 20.625-4.123 0-7.779-.655-14.162-3.188-2.799-1.123-3.111-1.217-4.591-1.594.388-6.375.7-10.217.7-19.125h4.747c.079 7.125.311 18.938 13.073 18.938 8.326 0 12.139-4.967 12.139-11.531 0-5.719-2.336-8.812-11.672-13.594l-4.128-2.061zm85.074 10.214c-1.445 8.486-1.826 10.652-2.814 19.68-5.775-.361-12.242-.264-19.693-.264-10.338 0-18.049-.021-21.137.129l.014-3.207c5.018.182 5.01 0 5.01-7.129v-43.871c0-6.317-1.369-7.492-6.387-7.131v-3.342c3.65.273 7.4.143 11.051.143 3.57 0 7.121.131 10.77-.139v3.338c-5.02-.27-6.994.09-6.92 7.131v42.607c0 6.678 0 7.039 7.301 6.951 14.977 0 17.029-3.611 19.006-14.896h3.799z"/></svg>